<?xml version="1.0" encoding="UTF-8"?>
<svg version="1.1" xmlns="http://www.w3.org/2000/svg" width="512" height="512">
<path d="M0 0 C168.96 0 337.92 0 512 0 C512 168.96 512 337.92 512 512 C343.04 512 174.08 512 0 512 C0 343.04 0 174.08 0 0 Z " fill="#FEF9E5" transform="translate(0,0)"/>
<path d="M0 0 C168.96 0 337.92 0 512 0 C512 168.96 512 337.92 512 512 C343.04 512 174.08 512 0 512 C0 343.04 0 174.08 0 0 Z M88 98 C64.78659153 125.17989141 66.83341659 160.82568275 66.8656745 194.38001585 C66.86826983 197.94952171 66.86583907 201.51902548 66.86428833 205.08853149 C66.86247712 211.12168848 66.86483486 217.15483318 66.86962891 223.18798828 C66.87438317 229.23747574 66.87451637 235.28693843 66.86962891 241.33642578 C66.84587974 271.83375453 66.88228201 302.33248652 67.27200699 332.82774734 C67.30366385 335.42378278 67.33091147 338.01987657 67.35326767 340.61600876 C67.6060346 368.4409645 70.01972548 394.20329347 90.20703125 415.3984375 C104.74174786 428.93706864 123.07043368 436.27674229 142.65670776 438.09320068 C143.57357829 438.17858337 144.49044882 438.26396606 145.4351033 438.3519361 C155.29074171 439.20405193 165.10688228 439.2818266 174.99267578 439.25878906 C176.9944776 439.26150881 178.99627842 439.26507519 180.99807739 439.26940918 C186.36573258 439.27841742 191.73330967 439.27503774 197.10096598 439.26865101 C202.75879 439.26353174 208.41660804 439.26829859 214.07443237 439.27142334 C223.56737449 439.27504531 233.06028531 439.27030999 242.55322266 439.26074219 C253.4806405 439.2498548 264.4079837 439.25339249 275.33539975 439.264395 C284.77214189 439.27351105 294.20886175 439.27473234 303.64560688 439.26951766 C309.25796344 439.26642239 314.87028508 439.26592068 320.48263931 439.27259064 C325.76060048 439.27842699 331.03846664 439.27425392 336.31641769 439.26280212 C338.23707167 439.26018907 340.15773384 439.26086204 342.0783844 439.26532745 C357.4221913 439.29767436 373.55990009 439.26549785 388.375 434.8125 C389.10847656 434.59891846 389.84195312 434.38533691 390.59765625 434.1652832 C409.68178471 428.29308355 424.08834283 415.49558651 434.17578125 398.53125 C443.92219903 379.66452264 444.14987863 358.88898093 444.16113281 338.17431641 C444.16576872 336.17723501 444.17079441 334.18015448 444.17617798 332.18307495 C444.189232 326.78166245 444.19573353 321.38026233 444.20018864 315.97883654 C444.20313151 312.594078 444.2072386 309.20932275 444.21169281 305.82456589 C444.22535108 295.20510775 444.23502515 284.58565724 444.2388947 273.96619093 C444.24336749 261.76267311 444.26088626 249.55926773 444.2898953 237.35578406 C444.31161189 227.88694493 444.32160432 218.4181372 444.32293582 208.94927347 C444.32397699 203.31096264 444.32973624 197.67275773 444.34775543 192.03447342 C444.36440905 186.72050391 444.36630908 181.40671801 444.35761642 176.09273148 C444.35685512 174.16001895 444.36106626 172.22729583 444.37107468 170.29460907 C444.41960264 160.32580927 444.03215471 150.59807451 442.64959717 140.71517944 C442.53117564 139.86662467 442.41275412 139.01806989 442.29074407 138.14380133 C439.90346164 122.64982071 433.01444892 107.2705989 422 96 C421.34 96 420.68 96 420 96 C420 95.34 420 94.68 420 94 C402.4738048 78.23926403 381.34236787 72.83586655 358.287323 72.85955811 C356.90099063 72.85510142 356.90099063 72.85510142 355.48665154 72.8505547 C352.41801217 72.84194662 349.34941217 72.84036621 346.28076172 72.83886719 C344.06882139 72.83423344 341.85688186 72.82920804 339.64494324 72.82382202 C333.65498301 72.81075025 327.66503396 72.80426338 321.6750617 72.79981136 C317.92634909 72.79687238 314.17763947 72.79276606 310.42892838 72.78830719 C300.02472273 72.77620869 289.62051921 72.76582301 279.21630669 72.7624321 C278.21989936 72.76210275 278.21989936 72.76210275 277.20336259 72.76176675 C276.53761775 72.76154847 275.8718729 72.76133019 275.18595397 72.7611053 C273.83718546 72.76066185 272.48841695 72.76021529 271.13964844 72.75976562 C270.13612208 72.75943348 270.13612208 72.75943348 269.11232246 72.75909463 C258.28260451 72.75515027 247.45295397 72.73770264 236.62326203 72.7144061 C225.47190694 72.6906136 214.32057633 72.67848397 203.16919339 72.67706418 C196.92125685 72.67601974 190.67341559 72.67018887 184.42550278 72.65224457 C178.54359046 72.63567869 172.6618442 72.63364951 166.77991676 72.64238358 C164.63224783 72.64314939 162.48456964 72.6388721 160.3369236 72.62892532 C132.86888322 72.50926027 107.92969484 77.60265241 88 98 Z " fill="#FCEFD8" transform="translate(0,0)"/>
<path d="M0 0 C1.09828125 0.0928125 1.09828125 0.0928125 2.21875 0.1875 C7.63038992 2.1149334 11.20653396 7.88427645 14.8125 12.1875 C15.46508789 12.95803711 15.46508789 12.95803711 16.13085938 13.74414062 C17.06530216 14.85337126 17.98515406 15.97500487 18.89257812 17.10644531 C20.51693436 19.08454377 20.51693436 19.08454377 22.60742188 21.02636719 C30.14539947 28.86975706 29.5721932 36.62095377 29.375 46.875 C29.36150111 49.26333958 29.35925043 51.6512156 29.36599731 54.0395813 C29.3667728 55.51545062 29.3541519 56.9914068 29.32614136 58.4670105 C29.29346895 62.13477819 29.34307676 64.94522328 31.5 68 C34.88068862 69.69034431 37.91041115 69.98394821 41.5 69 C44.87569033 66.31823056 47.69852146 63.26839163 50.5 60 C53.90327208 61.41129209 55.48435196 62.9852999 57.5625 66 C59.48852828 68.77920261 60.61204349 70.07469566 63.5 72 C67.51325529 72.34155364 70.1195551 72.1873467 73.5 70 C75.28619245 67.95036588 76.93349402 65.91741868 78.5625 63.75 C79.53364223 62.48551428 80.50500297 61.22119637 81.4765625 59.95703125 C81.97317383 59.30557129 82.46978516 58.65411133 82.98144531 57.98291016 C85.43642893 54.77722254 87.93824168 51.60870262 90.4375 48.4375 C91.32164063 47.31121836 92.20575648 46.18491727 93.08984375 45.05859375 C93.88519531 44.04925781 94.68054688 43.03992188 95.5 42 C96.21671875 41.07960938 96.9334375 40.15921875 97.671875 39.2109375 C100.69490722 35.55487716 103.16291962 34.17332523 107.875 33.5625 C115.34534526 34.46409339 119.72009907 38.79741429 124.25 44.375 C125.02077881 45.29865356 125.02077881 45.29865356 125.80712891 46.2409668 C129.69891656 50.93463706 133.4743901 55.72112379 137.21386719 60.53662109 C140.89020521 65.2635283 144.67893634 69.88958435 148.5 74.5 C152.8042242 79.69435107 157.04665552 84.92445341 161.1875 90.25 C165.19680739 95.40387985 169.3421616 100.41807038 173.58227539 105.38330078 C176.98554097 109.37283036 180.28459915 113.43171811 183.5390625 117.54296875 C185.66095348 120.20167278 187.8292763 122.81855519 190 125.4375 C193.06228881 129.19745808 196.10806375 132.96704329 199.0625 136.8125 C199.72378906 137.66457031 200.38507813 138.51664063 201.06640625 139.39453125 C202.79492834 142.53601417 202.89298862 144.46310246 202.5 148 C200.679402 151.081012 199.30661722 152.63076223 196.04384518 154.12433147 C191.13818847 155.33649763 186.45887578 155.27892707 181.42347717 155.26069641 C180.30439624 155.26452196 179.1853153 155.26834751 178.03232282 155.27228898 C174.2806968 155.28261167 170.52922402 155.27862815 166.77758789 155.2746582 C164.08858228 155.27900506 161.39958792 155.28412361 158.71058655 155.29014587 C152.16378645 155.30288966 145.61702737 155.30468699 139.07021696 155.30234561 C133.74861877 155.30056202 128.42703303 155.30231297 123.10543633 155.30657005 C121.96901386 155.30746284 121.96901386 155.30746284 120.80963336 155.30837366 C119.27050468 155.30958542 117.731376 155.31079955 116.19224732 155.31201603 C101.76121906 155.32289023 87.33021416 155.32072958 72.89918458 155.31463119 C59.6996185 155.30946148 46.50012621 155.32071908 33.30057473 155.33972941 C19.74358522 155.35910469 6.18663062 155.36736439 -7.37037283 155.36360615 C-14.98013936 155.36169372 -22.58984308 155.36418581 -30.19959831 155.37832069 C-36.67746302 155.39023149 -43.15522624 155.39164277 -49.63309234 155.37953053 C-52.93728749 155.37363981 -56.24125856 155.3741738 -59.5454483 155.38453293 C-63.12930286 155.39495941 -66.71265716 155.38693205 -70.29649353 155.3742218 C-71.33813075 155.38159609 -72.37976798 155.38897037 -73.45296997 155.39656812 C-82.22605096 155.33103023 -88.10540169 153.39459831 -94.5 147 C-97.27425514 142.09881591 -98.30885652 137.5793154 -97.5 132 C-96.37038485 129.22188145 -94.81222526 126.84585661 -93.125 124.375 C-92.44497925 123.33533081 -92.44497925 123.33533081 -91.7512207 122.2746582 C-88.04735623 116.66408197 -84.14511135 111.19297352 -80.1953125 105.75390625 C-77.07031899 101.43282673 -74.06631945 97.03080728 -71.0625 92.625 C-70.50755859 91.811521 -69.95261719 90.99804199 -69.38085938 90.15991211 C-68.27542627 88.53877184 -67.17027886 86.91743672 -66.06542969 85.29589844 C-63.77919783 81.94285347 -61.48548751 78.59499702 -59.1875 75.25 C-58.74720459 74.60893311 -58.30690918 73.96786621 -57.85327148 73.30737305 C-55.24853631 69.52164034 -52.62829756 65.74715737 -49.99609375 61.98046875 C-40.70095428 48.67456023 -31.55503992 35.27525158 -22.47857666 21.81959534 C-20.85925061 19.42292631 -19.23269526 17.03119755 -17.60662842 14.63909912 C-16.56022976 13.0892102 -15.52984749 11.5285428 -14.50048828 9.96728516 C-13.90349121 9.07702637 -13.30649414 8.18676758 -12.69140625 7.26953125 C-12.18939697 6.50874268 -11.6873877 5.7479541 -11.17016602 4.96411133 C-8.05809458 1.3043226 -4.80805505 -0.54175268 0 0 Z " fill="#589390" transform="translate(199.5,245)"/>
<path d="M0 0 C168.96 0 337.92 0 512 0 C512 168.96 512 337.92 512 512 C343.04 512 174.08 512 0 512 C0 343.04 0 174.08 0 0 Z M12 12 C12 172.71 12 333.42 12 499 C172.71 499 333.42 499 499 499 C499 338.29 499 177.58 499 12 C338.29 12 177.58 12 12 12 Z " fill="#000000" transform="translate(0,0)"/>
<path d="M0 0 C5.19822586 1.54647735 9.81271458 3.80239776 14.609375 6.28125 C15.41739563 6.69540161 16.22541626 7.10955322 17.05792236 7.53625488 C18.75664798 8.40831255 20.45428264 9.28249828 22.15087891 10.15869141 C24.75242965 11.50125385 27.35834661 12.83503957 29.96484375 14.16796875 C31.61745494 15.01770925 33.26980789 15.8679522 34.921875 16.71875 C35.70205994 17.11775513 36.48224487 17.51676025 37.28607178 17.92785645 C38.36794769 18.48853821 38.36794769 18.48853821 39.47167969 19.06054688 C40.10644226 19.3876062 40.74120483 19.71466553 41.39520264 20.05163574 C43 21 43 21 45 23 C45.02970886 24.87141418 45.02970886 24.87141418 44.71948242 27.10473633 C44.60994232 27.91214264 44.50040222 28.71954895 44.38754272 29.55142212 C43.9307104 32.43778651 43.42661531 35.31111194 42.88700867 38.18305969 C41.53785457 45.42799295 40.78243891 52.46532442 40.60546875 59.83203125 C39.80411885 85.16068522 39.80411885 85.16068522 34.90625 91.86669922 C29.81993698 96.20831479 23.98301147 98.57197391 17.76123047 100.86669922 C13.60574416 102.57224895 10.263214 105.05363725 6.75 107.8125 C6.14704102 108.26923096 5.54408203 108.72596191 4.92285156 109.1965332 C3.27107717 110.45106001 1.63388296 111.72230665 0 113 C-0.87269531 113.67289062 -1.74539063 114.34578125 -2.64453125 115.0390625 C-5.12890174 116.98963448 -7.56986531 118.9822518 -10 121 C-10.51884766 121.42861328 -11.03769531 121.85722656 -11.57226562 122.29882812 C-19.05939288 128.50787599 -26.16377542 134.89008058 -32.73754883 142.07495117 C-34.2578125 143.67578125 -34.2578125 143.67578125 -37 146 C-39.17138672 145.64526367 -39.17138672 145.64526367 -41 145 C-40.98428955 143.70304199 -40.9685791 142.40608398 -40.95239258 141.06982422 C-40.64368691 113.10860901 -40.41353431 85.54393036 -45.61962891 57.95800781 C-45.74515137 56.98186523 -45.87067383 56.00572266 -46 55 C-46.1848999 53.74413086 -46.3697998 52.48826172 -46.56030273 51.19433594 C-46.47924684 46.27215148 -43.73913772 43.84100888 -40.385849 40.50512695 C-39.57660477 39.74031006 -38.76736053 38.97549316 -37.93359375 38.1875 C-37.10674576 37.37434326 -36.27989777 36.56118652 -35.42799377 35.72338867 C-32.78273209 33.1294292 -30.11141727 30.56437983 -27.4375 28 C-24.79473658 25.42986251 -22.1575882 22.85409213 -19.52198792 20.27661133 C-17.88236608 18.6770943 -16.23757749 17.08285018 -14.58677673 15.49487305 C-9.79284688 10.86424092 -5.32611158 6.068327 -1 1 C-0.67 0.67 -0.34 0.34 0 0 Z " fill="#0E4250" transform="translate(275,163)"/>
<path d="M0 0 C2.84026017 1.03791599 5.46761933 2.41755923 8.13671875 3.83203125 C8.89797562 4.22444504 9.65923248 4.61685883 10.44355774 5.02116394 C12.04585306 5.85022234 13.6451112 6.68517397 15.24145508 7.52563477 C17.68330219 8.81029153 20.13449658 10.07545025 22.58789062 11.33789062 C24.14641903 12.14731075 25.70438189 12.95782094 27.26171875 13.76953125 C27.99299484 14.14777542 28.72427094 14.52601959 29.47770691 14.91572571 C35.75818515 18.23650612 35.75818515 18.23650612 38 21 C38.52211814 26.75836787 37.67588102 30.84709026 35.5859375 36.2890625 C35.333815 36.95481293 35.0816925 37.62056335 34.82192993 38.30648804 C34.0185645 40.41760168 33.19689631 42.52104242 32.375 44.625 C31.84650671 46.01128105 31.31915482 47.39799781 30.79296875 48.78515625 C21.27413696 73.72586304 21.27413696 73.72586304 19 76 C12.69650047 76.97795245 7.84989344 73.82223786 2.421875 71.0390625 C1.41408997 70.53329681 0.40630493 70.02753113 -0.63201904 69.50643921 C-2.75620783 68.43763429 -4.87751527 67.36308608 -6.99609375 66.28320312 C-10.24644215 64.62681309 -13.50506252 62.98773987 -16.765625 61.3515625 C-18.82862832 60.310893 -20.89114559 59.2692593 -22.953125 58.2265625 C-23.93017395 57.73378815 -24.9072229 57.24101379 -25.91387939 56.73330688 C-27.26603546 56.04281754 -27.26603546 56.04281754 -28.64550781 55.33837891 C-29.44015442 54.9342276 -30.23480103 54.53007629 -31.05352783 54.11367798 C-33 53 -33 53 -35 51 C-35.52765005 46.8325785 -34.45467655 44.47014881 -32.32421875 40.9296875 C-31.74849121 39.95926514 -31.17276367 38.98884277 -30.57958984 37.98901367 C-29.64300537 36.4475769 -29.64300537 36.4475769 -28.6875 34.875 C-27.40167573 32.72305526 -26.11652845 30.57070588 -24.83203125 28.41796875 C-24.1870166 27.34337402 -23.54200195 26.2687793 -22.87744141 25.16162109 C-21.13499931 22.22733954 -19.43721685 19.27367601 -17.76171875 16.30078125 C-17.2716333 15.43404785 -16.78154785 14.56731445 -16.27661133 13.67431641 C-15.36311384 12.0535386 -14.45511579 10.42964508 -13.5534668 8.80224609 C-9.99379998 2.54029457 -7.70526955 -0.68696645 0 0 Z " fill="#0F4350" transform="translate(310,105)"/>
<path d="M0 0 C3.5060303 0.86943897 4.94966563 2.56083702 6.9375 5.48046875 C7.5625 8.98046875 7.5625 8.98046875 6.9375 12.48046875 C4.50006164 15.7064901 2.93521581 17.22849945 -1.01098633 18.22509766 C-5.12105622 19.91595127 -5.82552867 21.80255388 -7.76171875 25.75390625 C-8.07901443 26.38587418 -8.39631012 27.0178421 -8.72322083 27.66896057 C-9.75015916 29.72272749 -10.74966383 31.78863456 -11.75 33.85546875 C-12.80238956 35.97399678 -13.86174097 38.08895118 -14.92129517 40.2039032 C-15.62721597 41.61445325 -16.3308121 43.0261691 -17.03207397 44.43904114 C-20.05402355 50.51886606 -23.25744239 56.48718024 -26.5625 62.41796875 C-27.02487061 63.25054199 -27.48724121 64.08311523 -27.96362305 64.94091797 C-28.99283094 66.78952829 -30.02697425 68.63539004 -31.0625 70.48046875 C-31.7225 70.15046875 -32.3825 69.82046875 -33.0625 69.48046875 C-30.24888663 61.81335042 -27.15576994 54.31518835 -23.85546875 46.84765625 C-23.09672342 45.11731103 -22.33826404 43.38684041 -21.58007812 41.65625 C-20.41365591 38.9948498 -19.24158573 36.33673497 -18.05102539 33.68603516 C-12.01731636 21.12708643 -12.01731636 21.12708643 -10.9699707 7.49926758 C-11.0625 5.48046875 -11.0625 5.48046875 -9.0625 2.29296875 C-5.75525084 0.29483905 -3.80605439 -0.26671214 0 0 Z " fill="#F5F3E3" transform="translate(276.0625,216.51953125)"/>
<path d="M0 0 C0.103125 0.639375 0.20625 1.27875 0.3125 1.9375 C0.6528125 2.9584375 0.6528125 2.9584375 1 4 C1.99 4.33 2.98 4.66 4 5 C2.18745633 8.50661297 0.37261719 12.01202709 -1.44433594 15.51635742 C-2.36514499 17.29348024 -3.28414495 19.07154006 -4.203125 20.84960938 C-4.78320312 21.96787109 -5.36328125 23.08613281 -5.9609375 24.23828125 C-6.49509277 25.26993408 -7.02924805 26.30158691 -7.57958984 27.36450195 C-9 30 -9 30 -11 33 C-11.66 32.67 -12.32 32.34 -13 32 C-8.96831066 21.20360115 -4.51539619 10.60099911 0 0 Z " fill="#E9EADF" transform="translate(256,254)"/>
<path d="M0 0 C0.33 0.99 0.66 1.98 1 3 C-2.96 6.96 -6.92 10.92 -11 15 C-11.99 14.67 -12.98 14.34 -14 14 C-9.38 9.38 -4.76 4.76 0 0 Z " fill="#EEEEE2" transform="translate(254,292)"/>
<path d="M0 0 C0.66 0.99 1.32 1.98 2 3 C1.21069203 5.48935591 0.1651105 7.669779 -1 10 C-1.66 9.67 -2.32 9.34 -3 9 C-2.01 6.03 -1.02 3.06 0 0 Z " fill="#D6DAD6" transform="translate(246,277)"/>
<path d="M0 0 C0.33 0.66 0.66 1.32 1 2 C1.66 2.33 2.32 2.66 3 3 C2.34 4.32 1.68 5.64 1 7 C0.34 7 -0.32 7 -1 7 C-1.04254356 5.00045254 -1.04080783 2.99958364 -1 1 C-0.67 0.67 -0.34 0.34 0 0 Z " fill="#F6F5E8" transform="translate(252,265)"/>
</svg>
